# xmcd CD database file
#
# Track frame offsets:
#	150
#	17306
#	37871
#	56505
#	73810
#	92447
#	121860
#	136956
#	149560
#	162549
#	170508
#
# Disc length: 2511 seconds
#
# Revision: 1
# Processed by: cddbd v1.4PL0 Copyright (c) Steve Scherf et al.
# Submitted via: Feurio! 1.65 - http://www.feurio.com
#
DISCID=8f09cd0b
DTITLE=midwest - town and country
DYEAR=1900
DGENRE=
TTITLE0=harry the father
TTITLE1=red ceek
TTITLE2=the tide
TTITLE3=mountain song
TTITLE4=in your life
TTITLE5=ripple and rise
TTITLE6=big green needle
TTITLE7=eating dust
TTITLE8=what fun life was
TTITLE9=hoarse
TTITLE10=the pain is easy
EXTD=
EXTT0=
EXTT1=
EXTT2=
EXTT3=
EXTT4=
EXTT5=
EXTT6=
EXTT7=
EXTT8=
EXTT9=
EXTT10=
PLAYORDER=
